/* XPM */
static char *_a8d382d77bf4900de9fcd204da9f227eefOmJxgyc1qFyPP[] = {
/* columns rows colors chars-per-pixel */
"64 64 7 1 ",
"  c None",
". c #FF7E00",
"X c #FFF200",
"o c #00B7EF",
"O c #F5E49C",
"+ c #FFF9BD",
"@ c white",
/* pixels */
"                                                                ",
"                                                                ",
"                                                     XXX        ",
"                                                  X XXXXX       ",
"        X X X                                     X  XXXXXX     ",
"        X XX                 .........           XXX X XX X     ",
"           XXX  X         ...@@@@@@@@@...         XXXXXXXXX X   ",
"      X XXXXXXX         ..@@@@@@@@@@@@@@@..     XXXX XXXXXX X   ",
"       XXXX  XX  X     .@@@@@@@@@@@@@@@@@@@.      XXXXXXX X X   ",
"       X X XX  XXX    .@@@@@@@@@@@@@@@@@@@@@.    X   XX X XX    ",
"      XXX      X     .@@@@@@@@@@@@@@@@@@@@@@@.    XX XXX  X     ",
"      XXX   X X X   .@@@@@@@oo@@@@oo@oo@oo@@@@.  XXXX XXXXXX    ",
"      XXX  XXX  X   .@@@@@@@@oo@@o@o@@o@@o@@@@.    XXXXXXXX     ",
"         XXX        .@@@o@o@ooo@o@ooo@o@@o@@@@.    XX  XX       ",
"           X X      .@@o@@ooo@ooooo@@o@@o@@@@@.     X   X       ",
"            X       .@@@@o@oo@oooo@@@@oooooo@@.                 ",
"                    .@@@o@ooooo@o@@@@@o@@@oo@@.                 ",
"         XX X       .@@@o@oo@oooo@o@o@oo@o@@@@.                 ",
"             XX     .@@o@oo@@o@oooo@@o@o@@@o@@.       XX        ",
"       X XXXX X     .@@@oo@@o@oooo@@@@oo@@o@@@.     X X X       ",
"       X XXX  X X   .@@@oooo@o@@o@@oooooooo@@@.    XXX X X      ",
"     XXX X XXXXXX   .@@@o@oo@oooo@@o@@oo@@@@@@.  X XXX XXXXX    ",
"      XX X  XXXXX   .@@@@oooo@@o@@@@o@@@@@@@@@.   XXX     X X   ",
"      X XX XX   X   .@@@@@@o@@@@@@@@@@@@@@@@@@.  X XX XXXX X    ",
"      XX XXXX XXXX  .@@@@@@@@@@@@@@@@@@@@@@@@@.    X X  XXXX    ",
"       XX X  XXXX   .@@@@@@@@@@@@@@@@@@@@@@@@@. X XX XX   X     ",
"       X X XXXXXX   .@@@@@@@@@@@@@@@@@@@@@@@@@.  XX   X XX X    ",
"       X XXX X XX   .@@@@@@@@@@@@@@@@@@@@@@@@@.  XX  X     X    ",
"        XX X X      .@@@@@@@@@@@@@@@@@@@@@@@@@.    X XX XX      ",
"           X        .@@@@@@@@@@@@@@@@@@@@@@@@@.     XXXX X      ",
"                    .@@@@@@@@@@@@@@@@@@@@@@@@@.       X         ",
"                    .@@@@@@@@@@@@@@@@@@@@@@@@@.                 ",
"                    .@@@@@@@@@@@@@@@@@@@@@@@@@.                 ",
"                    .@@@@@@@@@@@@@@@@@@@@@@@@@.                 ",
"                    .@@@@@@@@@@@@@@@@@@@@@@@@@.                 ",
"                    .@@@@@@@@@@@@@@@@@@@@@@@@@.                 ",
"                    .@@@@@@@@@@@@@@@@@@@@@@@@@.                 ",
"                    .@@@@@@@@@@@@@@@@@@@@@@@@@.                 ",
"                    .@@@@@@@@@@@@@@@@@@@@@@@@@.                 ",
"                    .@@@@@@@@@@@@@@@@@@@@@@@@@.                 ",
"                    .@@@@@@@@@@@@@@@@@@@@@@@@@.                 ",
"                    .@@@@@@@@@@@@@@@@@@@@@@@@@.                 ",
"             OOOOOOOOOOOOOOOOOOOOOOOOOOOOOOOOOOOOOOO            ",
"             OOOOOOOOOOOOOOOOOOOOOOOOOOOOOOOOOOOOOOO            ",
"             OOOOOOOOOOOOOOOOOOOOOOOOOOOOOOOOOOOOOOO            ",
"             OOOOOOOOOOOOOOOOOOOOOOOOOOOOOOOOOOOOOOO            ",
"             OOOOOOOOOOOOOOOOOOOOOOOOOOOOOOOOOOOOOOO            ",
"             OOOOOOOOOOOOOOOOOOOOOOOOOOOOOOOOOOOOOOO            ",
"             OOOOOOOOOOOOOOOOOOOOOOOOOOOOOOOOOOOOOOO            ",
"      ++++++++++++++++++++++++++++++++++++++++++++++++++++      ",
"      ++++++++++++++++++++++++++++++++++++++++++++++++++++      ",
"      ++++++++++++++++++++++++++++++++++++++++++++++++++++      ",
"      ++++++++++++++++++++++++++++++++++++++++++++++++++++      ",
"      ++++++++++++++++++++++++++++++++++++++++++++++++++++      ",
"      ++++++++++++++++++++++++++++++++++++++++++++++++++++      ",
"      ++++++++++++++++++++++++++++++++++++++++++++++++++++      ",
"OOOOOOOOOOOOOOOOOOOOOOOOOOOOOOOOOOOOOOOOOOOOOOOOOOOOOOOOOOOOOOOO",
"OOOOOOOOOOOOOOOOOOOOOOOOOOOOOOOOOOOOOOOOOOOOOOOOOOOOOOOOOOOOOOOO",
"OOOOOOOOOOOOOOOOOOOOOOOOOOOOOOOOOOOOOOOOOOOOOOOOOOOOOOOOOOOOOOOO",
"OOOOOOOOOOOOOOOOOOOOOOOOOOOOOOOOOOOOOOOOOOOOOOOOOOOOOOOOOOOOOOOO",
"OOOOOOOOOOOOOOOOOOOOOOOOOOOOOOOOOOOOOOOOOOOOOOOOOOOOOOOOOOOOOOOO",
"OOOOOOOOOOOOOOOOOOOOOOOOOOOOOOOOOOOOOOOOOOOOOOOOOOOOOOOOOOOOOOOO",
"OOOOOOOOOOOOOOOOOOOOOOOOOOOOOOOOOOOOOOOOOOOOOOOOOOOOOOOOOOOOOOOO",
"OOOOOOOOOOOOOOOOOOOOOOOOOOOOOOOOOOOOOOOOOOOOOOOOOOOOOOOOOOOOOOOO"
};
