/* XPM */
static char *_34fffdd414a455ad6f5e52fb1f3fcf6hZN2dBwe7LrRGsTy[] = {
/* columns rows colors chars-per-pixel */
"64 64 2 1 ",
"  c None",
". c #FFF200",
/* pixels */
"                                                                ",
"                                                                ",
"                                                                ",
"                                                                ",
"                                                                ",
"                                                                ",
"                                                                ",
"                                                                ",
"                                                                ",
"                                                                ",
"                           .........                            ",
"                        ...............                         ",
"                      ...................                       ",
"                    .......................                     ",
"                   .........................                    ",
"                 .............................                  ",
"                ...............................                 ",
"               .................................                ",
"               .................................                ",
"              ...................................               ",
"             .....................................              ",
"             .....................................              ",
"            .......................................             ",
"            .......................................             ",
"           .........................................            ",
"           .........................................            ",
"           .........................................            ",
"          ...........................................           ",
"          ...........................................           ",
"          ...........................................           ",
"          ...........................................           ",
"          ...........................................           ",
"          ...........................................           ",
"          ..................... .....................           ",
"          .....................  ....................           ",
"          ....................   ....................           ",
"           ...................    ..................            ",
"           ..................      .................            ",
"           ..................      .................            ",
"            ................        ...............             ",
"            ................        ...............             ",
"             ..............          .............              ",
"             ..............          .............              ",
"              ............            ...........               ",
"               ...........             .........                ",
"               ..........              .........                ",
"                .........               .......                 ",
"                 .......                ......                  ",
"                   .....                 ...                    ",
"                    ...                  ..                     ",
"                      .                                         ",
"                                                                ",
"                                                                ",
"                                                                ",
"                                                                ",
"                                                                ",
"                                                                ",
"                                                                ",
"                                                                ",
"                                                                ",
"                                                                ",
"                                                                ",
"                                                                ",
"                                                                "
};
