/* XPM */
static char *_70a8bce0c3a4db49fe59d6b0fb6e18dIkQgfLPiejNSyrkI[] = {
/* columns rows colors chars-per-pixel */
"64 64 2 1 ",
"  c None",
". c #FFF200",
/* pixels */
"                                                                ",
"                                                                ",
"                                                                ",
"                                                                ",
"                                                                ",
"                                                                ",
"                                                                ",
"                                                                ",
"                                                                ",
"                                                                ",
"                           .........                            ",
"                        ...............                         ",
"                      ...................                       ",
"                    .......................                     ",
"                   .........................                    ",
"                 .............................                  ",
"                ...............................                 ",
"               .................................                ",
"               .................................                ",
"              ...................................               ",
"             .....................................              ",
"             .....................................              ",
"            .....................................               ",
"            ...................................                 ",
"           ..................................                   ",
"           ................................                     ",
"           ..............................                       ",
"          ..............................                        ",
"          ............................                          ",
"          ..........................                            ",
"          ........................                              ",
"          .......................                               ",
"          .........................                             ",
"          ...........................                           ",
"          ..............................                        ",
"          ................................                      ",
"           ..................................                   ",
"           ....................................                 ",
"           ......................................               ",
"            .......................................             ",
"            .......................................             ",
"             .....................................              ",
"             .....................................              ",
"              ...................................               ",
"               .................................                ",
"               .................................                ",
"                ...............................                 ",
"                 .............................                  ",
"                   .........................                    ",
"                    .......................                     ",
"                      ...................                       ",
"                        ...............                         ",
"                           .........                            ",
"                                                                ",
"                                                                ",
"                                                                ",
"                                                                ",
"                                                                ",
"                                                                ",
"                                                                ",
"                                                                ",
"                                                                ",
"                                                                ",
"                                                                "
};
