/* XPM */
static char *_123a4d1bb43473d85ef04026f363d9fnv45vVbf0cSEpT8p[] = {
/* columns rows colors chars-per-pixel */
"64 64 2 1 ",
"  c None",
". c #FFF200",
/* pixels */
"                                                                ",
"                                                                ",
"                                                                ",
"                                                                ",
"                                                                ",
"                                                                ",
"                                                                ",
"                                                                ",
"                                                                ",
"                                                                ",
"                                                                ",
"                                                                ",
"                                                                ",
"                    ..                   ..                     ",
"                   ....                 ....                    ",
"                 ......                 ......                  ",
"                ........               ........                 ",
"               .........               .........                ",
"               ..........             ..........                ",
"              ...........             ...........               ",
"             .............           .............              ",
"             .............           .............              ",
"            ...............         ...............             ",
"            ................       ................             ",
"           .................       .................            ",
"           ..................     ..................            ",
"           ..................     ..................            ",
"          ....................   ....................           ",
"          ....................   ....................           ",
"          ..................... .....................           ",
"          ..................... .....................           ",
"          ...........................................           ",
"          ...........................................           ",
"          ...........................................           ",
"          ...........................................           ",
"          ...........................................           ",
"           .........................................            ",
"           .........................................            ",
"           .........................................            ",
"            .......................................             ",
"            .......................................             ",
"             .....................................              ",
"             .....................................              ",
"              ...................................               ",
"               .................................                ",
"               .................................                ",
"                ...............................                 ",
"                 .............................                  ",
"                   .........................                    ",
"                    .......................                     ",
"                      ...................                       ",
"                        ...............                         ",
"                           .........                            ",
"                                                                ",
"                                                                ",
"                                                                ",
"                                                                ",
"                                                                ",
"                                                                ",
"                                                                ",
"                                                                ",
"                                                                ",
"                                                                ",
"                                                                "
};
