/* XPM */
static char *b07586aa2c9e4454a6e25b5f3a128413cJWkSMWZPtqkNhaI[] = {
/* columns rows colors chars-per-pixel */
"64 64 2 1 ",
"  c None",
". c #FFF200",
/* pixels */
"                                                                ",
"                                                                ",
"                                                                ",
"                                                                ",
"                                                                ",
"                                                                ",
"                                                                ",
"                                                                ",
"                                                                ",
"                                                                ",
"                           .........                            ",
"                        ...............                         ",
"                      ...................                       ",
"                    .......................                     ",
"                   .........................                    ",
"                 .............................                  ",
"                ...............................                 ",
"               .................................                ",
"               .................................                ",
"              ...................................               ",
"             .....................................              ",
"             .....................................              ",
"            .......................................             ",
"              .....................................             ",
"                ....................................            ",
"                  ..................................            ",
"                    ................................            ",
"                      ...............................           ",
"                        .............................           ",
"                          ...........................           ",
"                            .........................           ",
"                              .......................           ",
"                             ........................           ",
"                           ..........................           ",
"                          ...........................           ",
"                        .............................           ",
"                      ..............................            ",
"                    ................................            ",
"                   .................................            ",
"                 ..................................             ",
"               ....................................             ",
"             .....................................              ",
"             .....................................              ",
"              ...................................               ",
"               .................................                ",
"               .................................                ",
"                ...............................                 ",
"                 .............................                  ",
"                   .........................                    ",
"                    .......................                     ",
"                      ...................                       ",
"                        ...............                         ",
"                           .........                            ",
"                                                                ",
"                                                                ",
"                                                                ",
"                                                                ",
"                                                                ",
"                                                                ",
"                                                                ",
"                                                                ",
"                                                                ",
"                                                                ",
"                                                                "
};
