/* XPM */
static char *result[] = {
/* columns rows colors chars-per-pixel */
"64 64 3 1 ",
"  c black",
". c white",
"X c None",
/* pixels */
"XXXXXXXXXXXXXXXXXXXXXXXXXXXXXXXXXXXXXXXXXXXXXXXXXXXXXXXXXXXXXXXX",
"XXXXXXXXXXXXXXXXXXXXXXXXXXXXXXXXXXXXXXXXXXXXXXXXXXXXXXXXXXXXXXXX",
"XXXXXXXXXXXXXXXXXXXXXXXXXXXXXXXXXXXXXXXXXXXXXXXXXXXXXXXXXXXXXXXX",
"XXXXXXXXXXXXXXXXXXXXXXXXXXXXXXXXXXXXXXXXXXXXXXXXXXXXXXXXXXXXXXXX",
"XXXXXXXXXXXXXXXXXXXXXXXXXXXXXXXXXXXXXXXXXXXXXXXXXXXXXXXXXXXXXXXX",
"XXXXXXXXXXXXXXXXXXXXXXXXXXXXXXXXXXXXXXXXXXXXXXXXXXXXXXXXXXXXXXXX",
"XXXXXXXXXXXXXXXXXXXXXXXXXXXXXXXXXXXXXXXXXXXXXXXXXXXXXXXXXXXXXXXX",
"XXXXXXXXXXXXXXXXXXXXXXXXXXXXXXXXXXXXXXXXXXXXXXXXXXXXXXXXXXXXXXXX",
"XXXXXXXXXXXXXXXXXXXXXXXXXXXXXXXXXXXXXXXXXXXXXXXXXXXXXXXXXXXXXXXX",
"XXXXXXXXXXXXXXXXXXXXXXXXXXXXXXXXXXXXXXXXXXXXXXXXXXXXXXXXXXXXXXXX",
"XXXXXXXXXXXXXXXXXXXXXXXXXXXXXXXXX      XXXXXXXXXXXXXXXXXXXXXXXXX",
"XXXXXXXXXXXXXXXXXXXXXXXXXX       ......      XXXXXXXXXXXXXXXXXXX",
"XXXXXXXXXXXXXXXXXXXXXXXX   .................   XXXXXXXXXXXXXXXXX",
"XXXXXXXXXXXXXXXXXXXXXX   .....................   XXXXXXXXXXXXXXX",
"XXXXXXXXXXXXXXXXXXXXX  .........................  XXXXXXXXXXXXXX",
"XXXXXXXXXXXXXXXXXXXX  ...........................  XXXXXXXXXXXXX",
"XXXXXXXXXXXXXXXXXXX ..............................  XXXXXXXXXXXX",
"XXXXXXXXXXXXXXXXXX  ............................... XXXXXXXXXXXX",
"XXXXXXXXXXXXXXXXXX ................................. XXXXXXXXXXX",
"XXXXXXXXXXXXXXXXX .................................. XXXXXXXXXXX",
"XXXXXXXXXXXXXXXX  .................................. XXXXXXXXXXX",
"XXXXXXXXXXXXXXXX ..........     ......    .......... XXXXXXXXXXX",
"XXXXXXXXXXXXXXXX .........  XXX ...... XXX  ........ XXXXXXXXXXX",
"XXXXXXXXXXXXXXXX  ........ XXXX .....  XXXX  ....... XXXXXXXXXXX",
"XXXXXXXXXXXXXXXXX ......... XXX ..... XXXXXX ....... XXXXXXXXXXX",
"XXXXXXXXXXXXXXXXX  ........  XX ..... XXXXX  ....... XXXXXXXXXXX",
"XXXXXXXXXXXXXXXXXX .........   ......   XX  ....... XXXXXXXXXXXX",
"XXXXXXXXXXXXXXXXXX  ...................    ........ XXXXXXXXXXXX",
"XXXXXXXXXXXXXXXXXXX .............................. XXXXXXXXXXXXX",
"XXXXXXXXXXXXXXXXXXX .............................. XXXXXXXXXXXXX",
"XXXXXXXXXXXXXXXXXXXX ............................ XXXXXXXXXXXXXX",
"XXXXXXXXXXXXXXXXXXXX ........................... XXXXXXXXXXXXXXX",
"XXXXXXXXXXXXXXXXXXXXX ......................... XXXXXXXXXXXXXXXX",
"XXXXXXXXXXXXXXXXXXXXX ........................  XXXXXXXXXXXXXXXX",
"XXXXXXXXXXXXXXXXXXXXX ...... .......... ...... XXXXXXXXXXXXXXXXX",
"XXXXXXXXXXXXXXXXXXXXXX ..... ... .....  ...... XXXXXXXXXXXXXXXXX",
"XXXXXXXXXXXXXXXXXXXXXX ..... ... ...   ....... XXXXXXXXXXXXXXXXX",
"XXXXXXXXXXXXXXXXXXXXXX .....        .. ...... XXXXXXXXXXXXXXXXXX",
"XXXXXXXXXXXXXXXXXXXXXX .....  .... ... ...... XXXXXXXXXXXXXXXXXX",
"XXXXXXXXXXXXXXXXXXXXXX ...... .... .... ..... XXXXXXXXXXXXXXXXXX",
"XXXXXXXXXXXXXXXXXXXXXX ...... .... .......... XXXXXXXXXXXXXXXXXX",
"XXXXXXXXXXXXXXXXXXXXXX ..................... XXXXXXXXXXXXXXXXXXX",
"XXXXXXXXXXXXXXXXXXXXXX ..................... XXXXXXXXXXXXXXXXXXX",
"XXXXXXXXXXXXXXXXXXXXXXX .................... XXXXXXXXXXXXXXXXXXX",
"XXXXXXXXXXXXXXXXXXXXXXX  ................... XXXXXXXXXXXXXXXXXXX",
"XXXXXXXXXXXXXXXXXXXXXXXX .................. XXXXXXXXXXXXXXXXXXXX",
"XXXXXXXXXXXXXXXXXXXXXXXXX ................  XXXXXXXXXXXXXXXXXXXX",
"XXXXXXXXXXXXXXXXXXXXXXXXX  .............  XXXXXXXXXXXXXXXXXXXXXX",
"XXXXXXXXXXXXXXXXXXXXXXXXXX  ........... XXXXXXXXXXXXXXXXXXXXXXXX",
"XXXXXXXXXXXXXXXXXXXXXXXXXXX  .......   XXXXXXXXXXXXXXXXXXXXXXXXX",
"XXXXXXXXXXXXXXXXXXXXXXXXXXXX        XXXXXXXXXXXXXXXXXXXXXXXXXXXX",
"XXXXXXXXXXXXXXXXXXXXXXXXXXXXXXXXXXXXXXXXXXXXXXXXXXXXXXXXXXXXXXXX",
"XXXXXXXXXXXXXXXXXXXXXXXXXXXXXXXXXXXXXXXXXXXXXXXXXXXXXXXXXXXXXXXX",
"XXXXXXXXXXXXXXXXXXXXXXXXXXXXXXXXXXXXXXXXXXXXXXXXXXXXXXXXXXXXXXXX",
"XXXXXXXXXXXXXXXXXXXXXXXXXXXXXXXXXXXXXXXXXXXXXXXXXXXXXXXXXXXXXXXX",
"XXXXXXXXXXXXXXXXXXXXXXXXXXXXXXXXXXXXXXXXXXXXXXXXXXXXXXXXXXXXXXXX",
"XXXXXXXXXXXXXXXXXXXXXXXXXXXXXXXXXXXXXXXXXXXXXXXXXXXXXXXXXXXXXXXX",
"XXXXXXXXXXXXXXXXXXXXXXXXXXXXXXXXXXXXXXXXXXXXXXXXXXXXXXXXXXXXXXXX",
"XXXXXXXXXXXXXXXXXXXXXXXXXXXXXXXXXXXXXXXXXXXXXXXXXXXXXXXXXXXXXXXX",
"XXXXXXXXXXXXXXXXXXXXXXXXXXXXXXXXXXXXXXXXXXXXXXXXXXXXXXXXXXXXXXXX",
"XXXXXXXXXXXXXXXXXXXXXXXXXXXXXXXXXXXXXXXXXXXXXXXXXXXXXXXXXXXXXXXX",
"XXXXXXXXXXXXXXXXXXXXXXXXXXXXXXXXXXXXXXXXXXXXXXXXXXXXXXXXXXXXXXXX",
"XXXXXXXXXXXXXXXXXXXXXXXXXXXXXXXXXXXXXXXXXXXXXXXXXXXXXXXXXXXXXXXX",
"XXXXXXXXXXXXXXXXXXXXXXXXXXXXXXXXXXXXXXXXXXXXXXXXXXXXXXXXXXXXXXXX"
};
