/* XPM */
static char *_343667994c9491fd0e1076640d416c7MpaQz9Y1vVK50H4m[] = {
/* columns rows colors chars-per-pixel */
"64 64 2 1 ",
"  c #B4B4B4",
". c white",
/* pixels */
"................................................................",
"            .                                       .           ",
"            .                                       .           ",
"            .                                       .           ",
"            .                                       .           ",
"            .                                       .           ",
"            .                                       .           ",
"            .                                       .           ",
"            .                                       .           ",
"            .                                       .           ",
"            .                                       .           ",
"            .                                       .           ",
"................................................................",
".                              .                               .",
".                              .                               .",
".                              .                               .",
".                              .                               .",
".                              .                               .",
".                              .                               .",
".                              .                               .",
".                              .                               .",
".                              .                               .",
".                              .                               .",
".                              .                               .",
".                              .                               .",
".                              .                               .",
".                              .                               .",
".                              .                               .",
"................................................................",
"            .                                       .           ",
"            .                                       .           ",
"            .                                       .           ",
"            .                                       .           ",
"            .                                       .           ",
"            .                                       .           ",
"            .                                       .           ",
"            .                                       .           ",
"            .                                       .           ",
"            .                                       .           ",
"            .                                       .           ",
"................................................................",
".                              .                               .",
".                              .                               .",
".                              .                               .",
".                              .                               .",
".                              .                               .",
".                              .                               .",
".                              .                               .",
".                              .                               .",
".                              .                               .",
".                              .                               .",
".                              .                               .",
"................................................................",
"            .                                       .           ",
"            .                                       .           ",
"            .                                       .           ",
"            .                                       .           ",
"            .                                       .           ",
"            .                                       .           ",
"            .                                       .           ",
"            .                                       .           ",
"            .                                       .           ",
"            .                                       .           ",
"................................................................"
};
